<svg width="220" height="121" viewBox="0 0 220 121" fill="none" xmlns="http://www.w3.org/2000/svg">
<rect opacity="0.5" x="1" y="71" width="218" height="49" stroke="#15141A" stroke-width="2"/>
<rect x="1" y="71" width="70" height="48" transform="rotate(-90 1 71)" stroke="#868588" stroke-width="2"/>
<path opacity="0.5" d="M20.2912 43V29.9091H25.3026C26.2486 29.9091 27.0348 30.0582 27.6612 30.3565C28.2919 30.6506 28.7628 31.0533 29.0739 31.5646C29.3892 32.076 29.5469 32.6555 29.5469 33.3033C29.5469 33.8359 29.4446 34.2919 29.2401 34.6712C29.0355 35.0462 28.7607 35.3509 28.4155 35.5852C28.0703 35.8196 27.6847 35.9879 27.2585 36.0902V36.218C27.723 36.2436 28.1683 36.3864 28.5945 36.6463C29.0249 36.902 29.3764 37.2642 29.6491 37.733C29.9219 38.2017 30.0582 38.7685 30.0582 39.4332C30.0582 40.1108 29.8942 40.7202 29.5661 41.2614C29.2379 41.7983 28.7436 42.2223 28.0831 42.5334C27.4226 42.8445 26.5916 43 25.5902 43H20.2912ZM22.6626 41.0185H25.2131C26.0739 41.0185 26.6939 40.8544 27.0732 40.5263C27.4567 40.1939 27.6484 39.7678 27.6484 39.2479C27.6484 38.8601 27.5526 38.5107 27.3608 38.1996C27.169 37.8842 26.8963 37.6371 26.5426 37.4581C26.1889 37.2749 25.767 37.1832 25.277 37.1832H22.6626V41.0185ZM22.6626 35.4766H25.0085C25.4176 35.4766 25.7862 35.402 26.1143 35.2528C26.4425 35.0994 26.7003 34.8842 26.8878 34.6072C27.0795 34.326 27.1754 33.9936 27.1754 33.6101C27.1754 33.103 26.9964 32.6854 26.6385 32.3572C26.2848 32.0291 25.7585 31.8651 25.0597 31.8651H22.6626V35.4766Z" fill="#15141A"/>
<path opacity="0.5" d="M105.972 103H103.441L108.05 89.9091H110.977L115.592 103H113.061L109.565 92.5938H109.462L105.972 103ZM106.055 97.8672H112.959V99.772H106.055V97.8672Z" fill="#15141A"/>
</svg>
