<svg width="220" height="120" viewBox="0 0 220 120" fill="none" xmlns="http://www.w3.org/2000/svg">
<rect x="1" y="1" width="218" height="48" stroke="white" stroke-width="2"/>
<path d="M105.291 102V88.9091H110.303C111.249 88.9091 112.035 89.0582 112.661 89.3565C113.292 89.6506 113.763 90.0533 114.074 90.5646C114.389 91.076 114.547 91.6555 114.547 92.3033C114.547 92.8359 114.445 93.2919 114.24 93.6712C114.036 94.0462 113.761 94.3509 113.415 94.5852C113.07 94.8196 112.685 94.9879 112.259 95.0902V95.218C112.723 95.2436 113.168 95.3864 113.594 95.6463C114.025 95.902 114.376 96.2642 114.649 96.733C114.922 97.2017 115.058 97.7685 115.058 98.4332C115.058 99.1108 114.894 99.7202 114.566 100.261C114.238 100.798 113.744 101.222 113.083 101.533C112.423 101.844 111.592 102 110.59 102H105.291ZM107.663 100.018H110.213C111.074 100.018 111.694 99.8544 112.073 99.5263C112.457 99.1939 112.648 98.7678 112.648 98.2479C112.648 97.8601 112.553 97.5107 112.361 97.1996C112.169 96.8842 111.896 96.6371 111.543 96.4581C111.189 96.2749 110.767 96.1832 110.277 96.1832H107.663V100.018ZM107.663 94.4766H110.009C110.418 94.4766 110.786 94.402 111.114 94.2528C111.442 94.0994 111.7 93.8842 111.888 93.6072C112.08 93.326 112.175 92.9936 112.175 92.6101C112.175 92.103 111.996 91.6854 111.638 91.3572C111.285 91.0291 110.759 90.8651 110.06 90.8651H107.663V94.4766Z" fill="white"/>
<path d="M105.972 32H103.441L108.05 18.9091H110.977L115.592 32H113.061L109.565 21.5938H109.462L105.972 32ZM106.055 26.8672H112.959V28.772H106.055V26.8672Z" fill="white"/>
<rect x="1" y="71" width="218" height="48" stroke="white" stroke-width="2"/>
</svg>
