<svg width="95" height="177" viewBox="0 0 95 177" preserveAspectRatio="none" fill="none" xmlns="http://www.w3.org/2000/svg">
<rect width="94" height="142" transform="translate(0 34)" fill="white"/>
<rect width="94" height="142" transform="translate(0 34)" fill="white"/>
<path d="M0 34H0.502674M0.502674 34H94V176H0.502674V34Z" stroke="#15141A"/>
<path d="M0 40H94" stroke="#15141A"/>
<path d="M0 162H94" stroke="#15141A"/>
<path d="M0 101H94" stroke="#15141A"/>
<circle cx="47" cy="46" r="1" fill="#15141A"/>
<circle cx="47" cy="107" r="1" fill="#15141A"/>
<g opacity="0.87" clip-path="url(#clip0_702_1062)">
<path fill-rule="evenodd" clip-rule="evenodd" d="M55.1932 28.7691H50.6163V30.0768H55.1932C55.5543 30.0768 55.8471 29.784 55.8471 29.423C55.8471 29.0619 55.5543 28.7691 55.1932 28.7691ZM49.3086 27.4614V31.3845H55.1932C56.2765 31.3845 57.1547 30.5063 57.1547 29.423C57.1547 28.3397 56.2765 27.4614 55.1932 27.4614H49.3086Z" fill="#15141A"/>
<path d="M53.2305 22.8848C53.2305 22.5237 53.5233 22.231 53.8843 22.231C54.2454 22.231 54.5382 22.5237 54.5382 22.8848V28.1156C54.5382 28.4766 54.2454 28.7694 53.8843 28.7694C53.5233 28.7694 53.2305 28.4766 53.2305 28.1156V22.8848Z" fill="#15141A"/>
<path fill-rule="evenodd" clip-rule="evenodd" d="M40.1523 4.57689C37.6246 4.57689 35.5754 6.62604 35.5754 9.15381V11.7692H31.6523V9.15381C31.6523 4.45939 35.4579 0.653809 40.1523 0.653809C44.8468 0.653809 48.6523 4.45939 48.6523 9.15381V26.1538H44.7293V9.15381C44.7293 6.62604 42.6801 4.57689 40.1523 4.57689Z" fill="#15141A"/>
<path fill-rule="evenodd" clip-rule="evenodd" d="M40.1532 3.26912C36.9033 3.26912 34.2686 5.90375 34.2686 9.15373V11.7691H32.9609V9.15373C32.9609 5.18153 36.181 1.96143 40.1532 1.96143C44.1255 1.96143 47.3456 5.18153 47.3456 9.15373V26.1537H46.0379V9.15373C46.0379 5.90375 43.4032 3.26912 40.1532 3.26912Z" fill="white"/>
<path fill-rule="evenodd" clip-rule="evenodd" d="M48.0012 26.1539H46.6935C45.9713 26.1539 45.3858 26.7393 45.3858 27.4616V32.6923H49.3089V27.4616C49.3089 26.7393 48.7234 26.1539 48.0012 26.1539ZM46.6935 24.8462C45.249 24.8462 44.0781 26.0171 44.0781 27.4616V34H50.6166V27.4616C50.6166 26.0171 49.4457 24.8462 48.0012 24.8462H46.6935Z" fill="#15141A"/>
</g>
<defs>
<clipPath id="clip0_702_1062">
<rect width="26.1538" height="34" fill="white" transform="translate(31)"/>
</clipPath>
</defs>
</svg>
