<svg width="120" height="429" viewBox="0 0 120 429" preserveAspectRatio="none" fill="none" xmlns="http://www.w3.org/2000/svg">
<rect x="0.5" y="0.5" width="119" height="428" fill="white"/>
<rect x="0.5" y="0.5" width="119" height="141" fill="white" stroke="#393E46"/>
<rect x="0.5" y="411.5" width="119" height="17" fill="white" stroke="#393E46"/>
<ellipse cx="8.75" cy="362.266" rx="1.25" ry="1.19167" fill="#393E46"/>
<ellipse cx="8.75" cy="125.123" rx="1.25" ry="1.19167" fill="#393E46"/>
<rect y="189" width="1" height="2" fill="#393E46"/>
<rect x="0.5" y="221.822" width="118" height="126.677" fill="white" stroke="#393E46"/>
<g opacity="0.87">
<path fill-rule="evenodd" clip-rule="evenodd" d="M43.3802 236.199C44.7494 236.199 45.8594 235.089 45.8594 233.72C45.8594 232.351 44.7494 231.241 43.3802 231.241C42.011 231.241 40.901 232.351 40.901 233.72C40.901 235.089 42.011 236.199 43.3802 236.199ZM43.3802 238.678C46.1186 238.678 48.3385 236.458 48.3385 233.72C48.3385 230.982 46.1186 228.762 43.3802 228.762C40.6418 228.762 38.4219 230.982 38.4219 233.72C38.4219 236.458 40.6418 238.678 43.3802 238.678Z" fill="#393E46"/>
<path fill-rule="evenodd" clip-rule="evenodd" d="M60.7396 236.199C62.1088 236.199 63.2188 235.089 63.2188 233.72C63.2188 232.351 62.1088 231.241 60.7396 231.241C59.3704 231.241 58.2604 232.351 58.2604 233.72C58.2604 235.089 59.3704 236.199 60.7396 236.199ZM60.7396 238.678C63.478 238.678 65.6979 236.458 65.6979 233.72C65.6979 230.982 63.478 228.762 60.7396 228.762C58.0012 228.762 55.7812 230.982 55.7812 233.72C55.7812 236.458 58.0012 238.678 60.7396 238.678Z" fill="#393E46"/>
<path fill-rule="evenodd" clip-rule="evenodd" d="M78.0911 236.199C79.4604 236.199 80.5703 235.089 80.5703 233.72C80.5703 232.351 79.4604 231.241 78.0911 231.241C76.7219 231.241 75.612 232.351 75.612 233.72C75.612 235.089 76.7219 236.199 78.0911 236.199ZM78.0911 238.678C80.8296 238.678 83.0495 236.458 83.0495 233.72C83.0495 230.982 80.8296 228.762 78.0911 228.762C75.3527 228.762 73.1328 230.982 73.1328 233.72C73.1328 236.458 75.3527 238.678 78.0911 238.678Z" fill="#393E46"/>
</g>
<rect x="1.24219" y="246.113" width="116.521" height="1.23958" fill="#393E46"/>
<rect opacity="0.87" x="17.3594" y="254.791" width="84.2917" height="2.47917" rx="1.23958" fill="#393E46"/>
<rect x="17.8594" y="270.166" width="83.2917" height="65.9375" rx="3.5" stroke="#393E46"/>
<rect x="0.5" y="141.5" width="118" height="79.5729" fill="white" stroke="#393E46"/>
<g opacity="0.87">
<circle cx="60.125" cy="150.918" r="1.85938" fill="#393E46"/>
<circle cx="67.5625" cy="150.918" r="1.85938" fill="#393E46"/>
<circle cx="75" cy="150.918" r="1.85938" fill="#393E46"/>
<circle cx="47.1094" cy="150.918" r="2.71875" stroke="#393E46" stroke-width="2"/>
</g>
<rect x="1.24219" y="160.834" width="116.521" height="1.23958" fill="#393E46"/>
<rect x="17.8516" y="167.531" width="83.2917" height="43.625" rx="3.5" stroke="#393E46"/>
<rect x="0.5" y="0.5" width="119" height="428" stroke="#393E46"/>
</svg>
