<svg width="147" height="180" viewBox="0 0 147 180" preserveAspectRatio="none" fill="none" xmlns="http://www.w3.org/2000/svg">
<path d="M1 34H146V39.6494V168.741V179H1V168.741V162.994V39.6494V34Z" fill="white"/>
<path d="M146 39.6494V34H1V39.6494M146 39.6494V168.741M146 39.6494L74.3056 39.6389M1 39.6494V162.994M1 39.6494L74.3056 39.6389M146 168.741V179H1V162.994M146 168.741L74.3056 168.73M1 162.994V168.741L74.3056 168.73M74.3056 39.6389V168.73" stroke="#15141A"/>
<path d="M1 34H146V39.6494V168.741V179H1V168.741V162.994V39.6494V34Z" fill="white"/>
<path d="M146 39.6494V34H1V39.6494M146 39.6494V168.741M146 39.6494L74.3055 39.6389M1 39.6494V162.994M1 39.6494L74.3055 39.6389M146 168.741V179H1V162.994M146 168.741L74.3055 168.73M1 162.994V168.741L74.3055 168.73M74.3055 39.6389V168.73" stroke="#15141A"/>
<circle cx="63.8338" cy="106.501" r="1.61111" fill="#15141A"/>
<circle cx="84.7791" cy="106.501" r="1.61111" fill="#15141A"/>
<g opacity="0.87" clip-path="url(#clip0_953_783)">
<path fill-rule="evenodd" clip-rule="evenodd" d="M86.7962 28.7696H81.5376V30.0773H86.7962C87.211 30.0773 87.5474 29.7845 87.5474 29.4235C87.5474 29.0624 87.211 28.7696 86.7962 28.7696ZM80.0352 27.4619V31.385H86.7962C88.0408 31.385 89.0499 30.5067 89.0499 29.4235C89.0499 28.3402 88.0408 27.4619 86.7962 27.4619H80.0352Z" fill="#15141A"/>
<path d="M84.543 22.8843C84.543 22.5233 84.8794 22.2305 85.2942 22.2305C85.709 22.2305 86.0454 22.5233 86.0454 22.8843V28.1151C86.0454 28.4761 85.709 28.7689 85.2942 28.7689C84.8794 28.7689 84.543 28.4761 84.543 28.1151V22.8843Z" fill="#15141A"/>
<path fill-rule="evenodd" clip-rule="evenodd" d="M69.516 4.57737C66.6117 4.57737 64.2574 6.62653 64.2574 9.1543V11.7697H59.75V9.1543C59.75 4.45988 64.1224 0.654297 69.516 0.654297C74.9096 0.654297 79.2819 4.45988 79.2819 9.1543V26.1543H74.7745V9.1543C74.7745 6.62653 72.4202 4.57737 69.516 4.57737Z" fill="#15141A"/>
<path fill-rule="evenodd" clip-rule="evenodd" d="M69.5174 3.26961C65.7834 3.26961 62.7564 5.90424 62.7564 9.15422V11.7696H61.2539V9.15422C61.2539 5.18201 64.9536 1.96191 69.5174 1.96191C74.0813 1.96191 77.7809 5.18201 77.7809 9.15422V26.1542H76.2785V9.15422C76.2785 5.90424 73.2514 3.26961 69.5174 3.26961Z" fill="white"/>
<path fill-rule="evenodd" clip-rule="evenodd" d="M78.5308 26.1534H77.0283C76.1985 26.1534 75.5259 26.7388 75.5259 27.4611V32.6919H80.0333V27.4611C80.0333 26.7388 79.3606 26.1534 78.5308 26.1534ZM77.0283 24.8457C75.3687 24.8457 74.0234 26.0166 74.0234 27.4611V33.9995H81.5357V27.4611C81.5357 26.0166 80.1904 24.8457 78.5308 24.8457H77.0283Z" fill="#15141A"/>
</g>
<defs>
<clipPath id="clip0_953_783">
<rect width="30.0491" height="34" fill="white" transform="translate(59)"/>
</clipPath>
</defs>
</svg>
