<svg width="95" height="382" viewBox="0 0 95 382" fill="none" xmlns="http://www.w3.org/2000/svg">
<rect width="94" height="142" transform="translate(0 239)" fill="white"/>
<rect width="94" height="142" transform="translate(0 239)" fill="white"/>
<path d="M0 239H0.502674M0.502674 239H94V381H0.502674V239Z" stroke="#15141A"/>
<path d="M0 367H94" stroke="#15141A"/>
<circle cx="6" cy="244" r="1" fill="#15141A"/>
<path d="M46.1458 318.562V314.854L43.2708 317.708L42.0417 316.5L46.1458 312.396V310.854H44.6042L40.5833 314.875L39.3333 313.688L42.1458 310.854H38.4375V309.146H42.1458L39.2708 306.25L40.5 305.021L44.6042 309.146H46.1458V307.562L42.125 303.563L43.3333 302.313L46.1458 305.125V301.438H47.8542V305.125L50.75 302.25L51.9583 303.479L47.8542 307.562V309.146H49.4375L53.4583 305.104L54.6875 306.312L51.875 309.146H55.5625V310.854H51.875L54.7083 313.729L53.5208 314.958L49.4375 310.854H47.8542V312.396L51.9583 316.521L50.7708 317.75L47.8542 314.854V318.562H46.1458Z" fill="#15141A"/>
<rect width="94" height="238" transform="translate(0 1)" fill="white"/>
<rect width="94" height="238" transform="translate(0 1)" fill="white"/>
<path d="M0 1H0.502674M0.502674 1H94V239H0.502674V1Z" stroke="#15141A"/>
<circle cx="6" cy="233" r="1" fill="#15141A"/>
<path d="M46.4987 126.667V123.417L44.0154 125.9L43.2987 125.2L46.4987 122V120.5H44.9987L41.8654 123.633L41.132 122.95L43.582 120.5H40.332V119.5H43.582L41.082 117L41.7987 116.283L44.9987 119.5H46.4987V117.983L43.3654 114.85L44.0654 114.117L46.4987 116.567V113.333H47.4987V116.567L49.9987 114.067L50.6987 114.783L47.4987 117.983V119.5H49.0154L52.1654 116.35L52.882 117.05L50.432 119.5H53.6654V120.5H50.432L52.8987 122.983L52.2154 123.7L49.0154 120.5H47.4987V122L50.6987 125.217L50.0154 125.933L47.4987 123.417V126.667H46.4987Z" fill="#15141A"/>
</svg>
