<svg width="105" height="108" viewBox="0 0 105 108" preserveAspectRatio="none" fill="none" xmlns="http://www.w3.org/2000/svg">
<path d="M104 107H1V95.987V50.5584V27.1558V5.12987V1H104V5.12987V27.1558V50.5584V95.987V107Z" fill="white"/>
<path d="M1 5.12987V1H104V5.12987M1 5.12987V27.1558V50.5584V95.987M1 5.12987H47M104 5.12987V27.1558V50.5584V95.987M104 5.12987H52.5M104 95.987V107H1V95.987M104 95.987H52.5M1 95.987H47M52.5 5.12987V95.987M52.5 5.12987H47M52.5 95.987H47M47 95.987V5.12987" stroke="#15141A"/>
</svg>
