<svg width="20" height="20" viewBox="0 0 20 20" fill="none" xmlns="http://www.w3.org/2000/svg">
<mask id="mask0_1090_1770" style="mask-type:alpha" maskUnits="userSpaceOnUse" x="0" y="0" width="20" height="20">
<rect width="20" height="20" fill="#D9D9D9"/>
</mask>
<g mask="url(#mask0_1090_1770)">
<path d="M4.89583 14.1667C5.60417 13.6389 6.3925 13.2222 7.26083 12.9167C8.12861 12.6111 9.04167 12.4583 10 12.4583C10.9583 12.4583 11.875 12.6144 12.75 12.9267C13.625 13.2394 14.4097 13.6597 15.1042 14.1875C15.5764 13.6042 15.9444 12.9617 16.2083 12.26C16.4722 11.5589 16.6042 10.8056 16.6042 10C16.6042 8.16667 15.9619 6.6075 14.6775 5.3225C13.3925 4.03806 11.8333 3.39583 10 3.39583C8.16667 3.39583 6.60778 4.03806 5.32333 5.3225C4.03833 6.6075 3.39583 8.16667 3.39583 10C3.39583 10.8056 3.52778 11.5589 3.79167 12.26C4.05556 12.9617 4.42361 13.5972 4.89583 14.1667ZM10 10.875C9.16667 10.875 8.46528 10.5903 7.89583 10.0208C7.32639 9.45139 7.04167 8.75 7.04167 7.91667C7.04167 7.09722 7.32639 6.40278 7.89583 5.83333C8.46528 5.26389 9.16667 4.97917 10 4.97917C10.8333 4.97917 11.5347 5.26389 12.1042 5.83333C12.6736 6.40278 12.9583 7.09722 12.9583 7.91667C12.9583 8.75 12.6736 9.45139 12.1042 10.0208C11.5347 10.5903 10.8333 10.875 10 10.875ZM10 18.5C8.81944 18.5 7.71167 18.2778 6.67667 17.8333C5.64222 17.3889 4.74306 16.7847 3.97917 16.0208C3.21528 15.2569 2.61111 14.3578 2.16667 13.3233C1.72222 12.2883 1.5 11.1806 1.5 10C1.5 8.81944 1.72222 7.71167 2.16667 6.67667C2.61111 5.64222 3.21528 4.74306 3.97917 3.97917C4.74306 3.21528 5.64222 2.61111 6.67667 2.16667C7.71167 1.72222 8.81944 1.5 10 1.5C11.1806 1.5 12.2883 1.72222 13.3233 2.16667C14.3578 2.61111 15.2569 3.21528 16.0208 3.97917C16.7847 4.74306 17.3889 5.64222 17.8333 6.67667C18.2778 7.71167 18.5 8.81944 18.5 10C18.5 11.1806 18.2778 12.2883 17.8333 13.3233C17.3889 14.3578 16.7847 15.2569 16.0208 16.0208C15.2569 16.7847 14.3578 17.3889 13.3233 17.8333C12.2883 18.2778 11.1806 18.5 10 18.5ZM10 16.6042C10.7222 16.6042 11.3994 16.5 12.0317 16.2917C12.6633 16.0833 13.25 15.7847 13.7917 15.3958C13.2361 15.0069 12.6494 14.7083 12.0317 14.5C11.4133 14.2917 10.7361 14.1875 10 14.1875C9.26389 14.1875 8.58667 14.2917 7.96833 14.5C7.35056 14.7083 6.76389 15.0069 6.20833 15.3958C6.75 15.7847 7.33667 16.0833 7.96833 16.2917C8.60056 16.5 9.27778 16.6042 10 16.6042ZM10 9.14583C10.3472 9.14583 10.6356 9.03111 10.865 8.80167C11.0939 8.57278 11.2083 8.27778 11.2083 7.91667C11.2083 7.56944 11.0939 7.28111 10.865 7.05167C10.6356 6.82278 10.3472 6.70833 10 6.70833C9.65278 6.70833 9.36472 6.82278 9.13583 7.05167C8.90639 7.28111 8.79167 7.56944 8.79167 7.91667C8.79167 8.27778 8.90639 8.57278 9.13583 8.80167C9.36472 9.03111 9.65278 9.14583 10 9.14583Z" fill="#393E46"/>
</g>
</svg>
