<svg width="48" height="48" viewBox="0 0 48 48" fill="none" xmlns="http://www.w3.org/2000/svg">
<rect x="0.6" y="0.6" width="46.8" height="46.8" rx="1.4" stroke="#393E46" stroke-width="1.2"/>
<mask id="mask0_1085_1526" style="mask-type:alpha" maskUnits="userSpaceOnUse" x="8" y="8" width="32" height="32">
<rect x="8" y="8" width="32" height="32" fill="#D9D9D9"/>
</mask>
<g mask="url(#mask0_1085_1526)">
<path d="M13.332 33.0007C13.0431 33.0007 12.8045 32.9064 12.616 32.718C12.4267 32.5287 12.332 32.2895 12.332 32.0007C12.332 31.7118 12.4267 31.4727 12.616 31.2833C12.8045 31.0949 13.0431 31.0007 13.332 31.0007H18.6654C18.9543 31.0007 19.1934 31.0949 19.3827 31.2833C19.5711 31.4727 19.6654 31.7118 19.6654 32.0007C19.6654 32.2895 19.5711 32.5287 19.3827 32.718C19.1934 32.9064 18.9543 33.0007 18.6654 33.0007H13.332ZM13.332 17.0007C13.0431 17.0007 12.8045 16.906 12.616 16.7167C12.4267 16.5282 12.332 16.2895 12.332 16.0007C12.332 15.7118 12.4267 15.4731 12.616 15.2847C12.8045 15.0953 13.0431 15.0007 13.332 15.0007H23.9987C24.2876 15.0007 24.5267 15.0953 24.716 15.2847C24.9045 15.4731 24.9987 15.7118 24.9987 16.0007C24.9987 16.2895 24.9045 16.5282 24.716 16.7167C24.5267 16.906 24.2876 17.0007 23.9987 17.0007H13.332ZM23.9987 35.6673C23.7098 35.6673 23.4711 35.5731 23.2827 35.3847C23.0934 35.1953 22.9987 34.9562 22.9987 34.6673V29.334C22.9987 29.0451 23.0934 28.806 23.2827 28.6167C23.4711 28.4282 23.7098 28.334 23.9987 28.334C24.2876 28.334 24.5267 28.4282 24.716 28.6167C24.9045 28.806 24.9987 29.0451 24.9987 29.334V31.0007H34.6654C34.9543 31.0007 35.1934 31.0949 35.3827 31.2833C35.5711 31.4727 35.6654 31.7118 35.6654 32.0007C35.6654 32.2895 35.5711 32.5287 35.3827 32.718C35.1934 32.9064 34.9543 33.0007 34.6654 33.0007H24.9987V34.6673C24.9987 34.9562 24.9045 35.1953 24.716 35.3847C24.5267 35.5731 24.2876 35.6673 23.9987 35.6673ZM18.6654 27.6673C18.3765 27.6673 18.1378 27.5727 17.9494 27.3833C17.76 27.1949 17.6654 26.9562 17.6654 26.6673V25.0007H13.332C13.0431 25.0007 12.8045 24.906 12.616 24.7167C12.4267 24.5282 12.332 24.2895 12.332 24.0007C12.332 23.7118 12.4267 23.4727 12.616 23.2833C12.8045 23.0949 13.0431 23.0007 13.332 23.0007H17.6654V21.334C17.6654 21.0451 17.76 20.806 17.9494 20.6167C18.1378 20.4282 18.3765 20.334 18.6654 20.334C18.9543 20.334 19.1934 20.4282 19.3827 20.6167C19.5711 20.806 19.6654 21.0451 19.6654 21.334V26.6673C19.6654 26.9562 19.5711 27.1949 19.3827 27.3833C19.1934 27.5727 18.9543 27.6673 18.6654 27.6673ZM23.9987 25.0007C23.7098 25.0007 23.4711 24.906 23.2827 24.7167C23.0934 24.5282 22.9987 24.2895 22.9987 24.0007C22.9987 23.7118 23.0934 23.4727 23.2827 23.2833C23.4711 23.0949 23.7098 23.0007 23.9987 23.0007H34.6654C34.9543 23.0007 35.1934 23.0949 35.3827 23.2833C35.5711 23.4727 35.6654 23.7118 35.6654 24.0007C35.6654 24.2895 35.5711 24.5282 35.3827 24.7167C35.1934 24.906 34.9543 25.0007 34.6654 25.0007H23.9987ZM29.332 19.6673C29.0431 19.6673 28.8045 19.5727 28.616 19.3833C28.4267 19.1949 28.332 18.9562 28.332 18.6673V13.334C28.332 13.0451 28.4267 12.806 28.616 12.6167C28.8045 12.4282 29.0431 12.334 29.332 12.334C29.6209 12.334 29.86 12.4282 30.0494 12.6167C30.2378 12.806 30.332 13.0451 30.332 13.334V15.0007H34.6654C34.9543 15.0007 35.1934 15.0953 35.3827 15.2847C35.5711 15.4731 35.6654 15.7118 35.6654 16.0007C35.6654 16.2895 35.5711 16.5282 35.3827 16.7167C35.1934 16.906 34.9543 17.0007 34.6654 17.0007H30.332V18.6673C30.332 18.9562 30.2378 19.1949 30.0494 19.3833C29.86 19.5727 29.6209 19.6673 29.332 19.6673Z" fill="#393E46"/>
</g>
</svg>
